<?xml version="1.0" encoding="UTF-8" standalone="no"?>
<!DOCTYPE svg PUBLIC "-//W3C//DTD SVG 1.1//EN"
 "http://www.w3.org/Graphics/SVG/1.1/DTD/svg11.dtd">
<!-- Generated by graphviz version 2.43.0 (0)
 -->
<!-- Title: Tree Pages: 1 -->
<svg width="412pt" height="314pt"
 viewBox="0.00 0.00 412.00 314.00" xmlns="http://www.w3.org/2000/svg" xmlns:xlink="http://www.w3.org/1999/xlink">
<g id="graph0" class="graph" transform="scale(1 1) rotate(0) translate(4 310)">
<title>Tree</title>
<polygon fill="white" stroke="transparent" points="-4,4 -4,-310 408,-310 408,4 -4,4"/>
<!-- 0 -->
<g id="node1" class="node">
<title>0</title>
<path fill="#ffffff" stroke="black" d="M250,-306C250,-306 74,-306 74,-306 68,-306 62,-300 62,-294 62,-294 62,-235 62,-235 62,-229 68,-223 74,-223 74,-223 250,-223 250,-223 256,-223 262,-229 262,-235 262,-235 262,-294 262,-294 262,-300 256,-306 250,-306"/>
<text text-anchor="middle" x="162" y="-290.8" font-family="Helvetica,sans-Serif" font-size="14.00">petal length (cm) &lt;= 2.45</text>
<text text-anchor="middle" x="162" y="-275.8" font-family="Helvetica,sans-Serif" font-size="14.00">gini = 0.667</text>
<text text-anchor="middle" x="162" y="-260.8" font-family="Helvetica,sans-Serif" font-size="14.00">samples = 150</text>
<text text-anchor="middle" x="162" y="-245.8" font-family="Helvetica,sans-Serif" font-size="14.00">value = [50, 50, 50]</text>
<text text-anchor="middle" x="162" y="-230.8" font-family="Helvetica,sans-Serif" font-size="14.00">class = setosa</text>
</g>
<!-- 1 -->
<g id="node2" class="node">
<title>1</title>
<path fill="#e58139" stroke="black" d="M128,-179.5C128,-179.5 12,-179.5 12,-179.5 6,-179.5 0,-173.5 0,-167.5 0,-167.5 0,-123.5 0,-123.5 0,-117.5 6,-111.5 12,-111.5 12,-111.5 128,-111.5 128,-111.5 134,-111.5 140,-117.5 140,-123.5 140,-123.5 140,-167.5 140,-167.5 140,-173.5 134,-179.5 128,-179.5"/>
<text text-anchor="middle" x="70" y="-164.3" font-family="Helvetica,sans-Serif" font-size="14.00">gini = 0.0</text>
<text text-anchor="middle" x="70" y="-149.3" font-family="Helvetica,sans-Serif" font-size="14.00">samples = 50</text>
<text text-anchor="middle" x="70" y="-134.3" font-family="Helvetica,sans-Serif" font-size="14.00">value = [50, 0, 0]</text>
<text text-anchor="middle" x="70" y="-119.3" font-family="Helvetica,sans-Serif" font-size="14.00">class = setosa</text>
</g>
<!-- 0&#45;&gt;1 -->
<g id="edge1" class="edge">
<title>0&#45;&gt;1</title>
<path fill="none" stroke="black" d="M130.08,-222.91C121.14,-211.54 111.42,-199.18 102.45,-187.77"/>
<polygon fill="black" stroke="black" points="105.01,-185.36 96.08,-179.67 99.51,-189.69 105.01,-185.36"/>
<text text-anchor="middle" x="93.11" y="-200.79" font-family="Helvetica,sans-Serif" font-size="14.00">True</text>
</g>
<!-- 2 -->
<g id="node3" class="node">
<title>2</title>
<path fill="#ffffff" stroke="black" d="M340,-187C340,-187 170,-187 170,-187 164,-187 158,-181 158,-175 158,-175 158,-116 158,-116 158,-110 164,-104 170,-104 170,-104 340,-104 340,-104 346,-104 352,-110 352,-116 352,-116 352,-175 352,-175 352,-181 346,-187 340,-187"/>
<text text-anchor="middle" x="255" y="-171.8" font-family="Helvetica,sans-Serif" font-size="14.00">petal width (cm) &lt;= 1.75</text>
<text text-anchor="middle" x="255" y="-156.8" font-family="Helvetica,sans-Serif" font-size="14.00">gini = 0.5</text>
<text text-anchor="middle" x="255" y="-141.8" font-family="Helvetica,sans-Serif" font-size="14.00">samples = 100</text>
<text text-anchor="middle" x="255" y="-126.8" font-family="Helvetica,sans-Serif" font-size="14.00">value = [0, 50, 50]</text>
<text text-anchor="middle" x="255" y="-111.8" font-family="Helvetica,sans-Serif" font-size="14.00">class = versicolor</text>
</g>
<!-- 0&#45;&gt;2 -->
<g id="edge2" class="edge">
<title>0&#45;&gt;2</title>
<path fill="none" stroke="black" d="M194.27,-222.91C201.41,-213.92 209.04,-204.32 216.41,-195.05"/>
<polygon fill="black" stroke="black" points="219.31,-197.03 222.79,-187.02 213.83,-192.67 219.31,-197.03"/>
<text text-anchor="middle" x="225.63" y="-208.16" font-family="Helvetica,sans-Serif" font-size="14.00">False</text>
</g>
<!-- 3 -->
<g id="node4" class="node">
<title>3</title>
<path fill="#4de88e" stroke="black" d="M234,-68C234,-68 118,-68 118,-68 112,-68 106,-62 106,-56 106,-56 106,-12 106,-12 106,-6 112,0 118,0 118,0 234,0 234,0 240,0 246,-6 246,-12 246,-12 246,-56 246,-56 246,-62 240,-68 234,-68"/>
<text text-anchor="middle" x="176" y="-52.8" font-family="Helvetica,sans-Serif" font-size="14.00">gini = 0.168</text>
<text text-anchor="middle" x="176" y="-37.8" font-family="Helvetica,sans-Serif" font-size="14.00">samples = 54</text>
<text text-anchor="middle" x="176" y="-22.8" font-family="Helvetica,sans-Serif" font-size="14.00">value = [0, 49, 5]</text>
<text text-anchor="middle" x="176" y="-7.8" font-family="Helvetica,sans-Serif" font-size="14.00">class = versicolor</text>
</g>
<!-- 2&#45;&gt;3 -->
<g id="edge3" class="edge">
<title>2&#45;&gt;3</title>
<path fill="none" stroke="black" d="M225.58,-103.73C219.2,-94.88 212.44,-85.51 206.03,-76.63"/>
<polygon fill="black" stroke="black" points="208.71,-74.36 200.02,-68.3 203.04,-78.46 208.71,-74.36"/>
</g>
<!-- 4 -->
<g id="node5" class="node">
<title>4</title>
<path fill="#843de6" stroke="black" d="M392,-68C392,-68 276,-68 276,-68 270,-68 264,-62 264,-56 264,-56 264,-12 264,-12 264,-6 270,0 276,0 276,0 392,0 392,0 398,0 404,-6 404,-12 404,-12 404,-56 404,-56 404,-62 398,-68 392,-68"/>
<text text-anchor="middle" x="334" y="-52.8" font-family="Helvetica,sans-Serif" font-size="14.00">gini = 0.043</text>
<text text-anchor="middle" x="334" y="-37.8" font-family="Helvetica,sans-Serif" font-size="14.00">samples = 46</text>
<text text-anchor="middle" x="334" y="-22.8" font-family="Helvetica,sans-Serif" font-size="14.00">value = [0, 1, 45]</text>
<text text-anchor="middle" x="334" y="-7.8" font-family="Helvetica,sans-Serif" font-size="14.00">class = virginica</text>
</g>
<!-- 2&#45;&gt;4 -->
<g id="edge4" class="edge">
<title>2&#45;&gt;4</title>
<path fill="none" stroke="black" d="M284.42,-103.73C290.8,-94.88 297.56,-85.51 303.97,-76.63"/>
<polygon fill="black" stroke="black" points="306.96,-78.46 309.98,-68.3 301.29,-74.36 306.96,-78.46"/>
</g>
</g>
</svg>
